<svg width="100" height="100" viewBox="0 0 100 100" fill="none" xmlns="http://www.w3.org/2000/svg">
  <path d="M96 0H100V4H96V0Z" fill="currentColor"/>
  <path d="M84 0H88V4H84V0Z" fill="currentColor"/>
  <path d="M72 0H76V4H72V0Z" fill="currentColor"/>
  <path d="M60 0H64V4H60V0Z" fill="currentColor"/>
  <path d="M48 0H52V4H48V0Z" fill="currentColor"/>
  <path d="M36 0H40V4H36V0Z" fill="currentColor"/>
  <path d="M24 0H28V4H24V0Z" fill="currentColor"/>
  <path d="M12 0H16V4H12V0Z" fill="currentColor"/>
  <path d="M0 0H4V4H0V0Z" fill="currentColor"/>
  <path d="M96 12H100V16H96V12Z" fill="currentColor"/>
  <path d="M84 12H88V16H84V12Z" fill="currentColor"/>
  <path d="M72 12H76V16H72V12Z" fill="currentColor"/>
  <path d="M60 12H64V16H60V12Z" fill="currentColor"/>
  <path d="M48 12H52V16H48V12Z" fill="currentColor"/>
  <path d="M36 12H40V16H36V12Z" fill="currentColor"/>
  <path d="M24 12H28V16H24V12Z" fill="currentColor"/>
  <path d="M12 12H16V16H12V12Z" fill="currentColor"/>
  <path d="M0 12H4V16H0V12Z" fill="currentColor"/>
  <path d="M96 24H100V28H96V24Z" fill="currentColor"/>
  <path d="M84 24H88V28H84V24Z" fill="currentColor"/>
  <path d="M72 24H76V28H72V24Z" fill="currentColor"/>
  <path d="M60 24H64V28H60V24Z" fill="currentColor"/>
  <path d="M48 24H52V28H48V24Z" fill="currentColor"/>
  <path d="M36 24H40V28H36V24Z" fill="currentColor"/>
  <path d="M24 24H28V28H24V24Z" fill="currentColor"/>
  <path d="M12 24H16V28H12V24Z" fill="currentColor"/>
  <path d="M0 24H4V28H0V24Z" fill="currentColor"/>
  <path d="M96 36H100V40H96V36Z" fill="currentColor"/>
  <path d="M84 36H88V40H84V36Z" fill="currentColor"/>
  <path d="M72 36H76V40H72V36Z" fill="currentColor"/>
  <path d="M60 36H64V40H60V36Z" fill="currentColor"/>
  <path d="M48 36H52V40H48V36Z" fill="currentColor"/>
  <path d="M36 36H40V40H36V36Z" fill="currentColor"/>
  <path d="M24 36H28V40H24V36Z" fill="currentColor"/>
  <path d="M12 36H16V40H12V36Z" fill="currentColor"/>
  <path d="M0 36H4V40H0V36Z" fill="currentColor"/>
  <path d="M96 48H100V52H96V48Z" fill="currentColor"/>
  <path d="M84 48H88V52H84V48Z" fill="currentColor"/>
  <path d="M72 48H76V52H72V48Z" fill="currentColor"/>
  <path d="M60 48H64V52H60V48Z" fill="currentColor"/>
  <path d="M48 48H52V52H48V48Z" fill="currentColor"/>
  <path d="M36 48H40V52H36V48Z" fill="currentColor"/>
  <path d="M24 48H28V52H24V48Z" fill="currentColor"/>
  <path d="M12 48H16V52H12V48Z" fill="currentColor"/>
  <path d="M0 48H4V52H0V48Z" fill="currentColor"/>
  <path d="M96 60H100V64H96V60Z" fill="currentColor"/>
  <path d="M84 60H88V64H84V60Z" fill="currentColor"/>
  <path d="M72 60H76V64H72V60Z" fill="currentColor"/>
  <path d="M60 60H64V64H60V60Z" fill="currentColor"/>
  <path d="M48 60H52V64H48V60Z" fill="currentColor"/>
  <path d="M36 60H40V64H36V60Z" fill="currentColor"/>
  <path d="M24 60H28V64H24V60Z" fill="currentColor"/>
  <path d="M12 60H16V64H12V60Z" fill="currentColor"/>
  <path d="M0 60H4V64H0V60Z" fill="currentColor"/>
  <path d="M96 72H100V76H96V72Z" fill="currentColor"/>
  <path d="M84 72H88V76H84V72Z" fill="currentColor"/>
  <path d="M72 72H76V76H72V72Z" fill="currentColor"/>
  <path d="M60 72H64V76H60V72Z" fill="currentColor"/>
  <path d="M48 72H52V76H48V72Z" fill="currentColor"/>
  <path d="M36 72H40V76H36V72Z" fill="currentColor"/>
  <path d="M24 72H28V76H24V72Z" fill="currentColor"/>
  <path d="M12 72H16V76H12V72Z" fill="currentColor"/>
  <path d="M0 72H4V76H0V72Z" fill="currentColor"/>
  <path d="M96 84H100V88H96V84Z" fill="currentColor"/>
  <path d="M84 84H88V88H84V84Z" fill="currentColor"/>
  <path d="M72 84H76V88H72V84Z" fill="currentColor"/>
  <path d="M60 84H64V88H60V84Z" fill="currentColor"/>
  <path d="M48 84H52V88H48V84Z" fill="currentColor"/>
  <path d="M36 84H40V88H36V84Z" fill="currentColor"/>
  <path d="M24 84H28V88H24V84Z" fill="currentColor"/>
  <path d="M12 84H16V88H12V84Z" fill="currentColor"/>
  <path d="M0 84H4V88H0V84Z" fill="currentColor"/>
  <path d="M96 96H100V100H96V96Z" fill="currentColor"/>
  <path d="M84 96H88V100H84V96Z" fill="currentColor"/>
  <path d="M72 96H76V100H72V96Z" fill="currentColor"/>
  <path d="M60 96H64V100H60V96Z" fill="currentColor"/>
  <path d="M48 96H52V100H48V96Z" fill="currentColor"/>
  <path d="M36 96H40V100H36V96Z" fill="currentColor"/>
  <path d="M24 96H28V100H24V96Z" fill="currentColor"/>
  <path d="M12 96H16V100H12V96Z" fill="currentColor"/>
  <path d="M0 96H4V100H0V96Z" fill="currentColor"/>
</svg>